<svg width="192" height="48" viewBox="0 0 192 48" fill="none" xmlns="http://www.w3.org/2000/svg">
<path d="M54.3335 28.1663L58.5002 23.9997L54.3335 19.833" stroke="white" stroke-width="2" stroke-linecap="round" stroke-linejoin="round"/>
<path d="M58.5 24H48.5" stroke="white" stroke-width="2" stroke-linecap="round" stroke-linejoin="round"/>
<path d="M58.5 16.5H61.8333C62.2754 16.5 62.6993 16.6756 63.0118 16.9882C63.3244 17.3007 63.5 17.7246 63.5 18.1667V29.8333C63.5 30.2754 63.3244 30.6993 63.0118 31.0118C62.6993 31.3244 62.2754 31.5 61.8333 31.5H58.5" stroke="white" stroke-width="2" stroke-linecap="round" stroke-linejoin="round"/>
<path d="M79.4382 31V17.9091H81.4134V29.2997H87.3452V31H79.4382ZM93.5806 31.1982C92.6602 31.1982 91.8569 30.9872 91.1708 30.5653C90.4847 30.1435 89.9521 29.5533 89.5728 28.7947C89.1935 28.0362 89.0039 27.1499 89.0039 26.1357C89.0039 25.1172 89.1935 24.2266 89.5728 23.4638C89.9521 22.701 90.4847 22.1087 91.1708 21.6868C91.8569 21.2649 92.6602 21.054 93.5806 21.054C94.5011 21.054 95.3043 21.2649 95.9904 21.6868C96.6765 22.1087 97.2092 22.701 97.5884 23.4638C97.9677 24.2266 98.1573 25.1172 98.1573 26.1357C98.1573 27.1499 97.9677 28.0362 97.5884 28.7947C97.2092 29.5533 96.6765 30.1435 95.9904 30.5653C95.3043 30.9872 94.5011 31.1982 93.5806 31.1982ZM93.587 29.5938C94.1836 29.5938 94.6779 29.4361 95.07 29.1207C95.462 28.8054 95.7518 28.3857 95.9393 27.8615C96.131 27.3374 96.2269 26.7599 96.2269 26.1293C96.2269 25.5028 96.131 24.9276 95.9393 24.4034C95.7518 23.875 95.462 23.451 95.07 23.1314C94.6779 22.8118 94.1836 22.652 93.587 22.652C92.9862 22.652 92.4876 22.8118 92.0913 23.1314C91.6992 23.451 91.4073 23.875 91.2156 24.4034C91.0281 24.9276 90.9343 25.5028 90.9343 26.1293C90.9343 26.7599 91.0281 27.3374 91.2156 27.8615C91.4073 28.3857 91.6992 28.8054 92.0913 29.1207C92.4876 29.4361 92.9862 29.5938 93.587 29.5938ZM104.407 34.8864C103.627 34.8864 102.956 34.7841 102.394 34.5795C101.835 34.375 101.379 34.1044 101.026 33.7678C100.672 33.4311 100.408 33.0625 100.233 32.6619L101.876 31.9844C101.991 32.1719 102.144 32.37 102.336 32.5788C102.532 32.7919 102.796 32.973 103.129 33.1222C103.465 33.2713 103.898 33.3459 104.426 33.3459C105.151 33.3459 105.749 33.169 106.222 32.8153C106.695 32.4659 106.932 31.9077 106.932 31.1406V29.2102H106.811C106.695 29.419 106.529 29.6513 106.312 29.907C106.099 30.1626 105.805 30.3842 105.43 30.5717C105.055 30.7592 104.567 30.853 103.966 30.853C103.191 30.853 102.492 30.6719 101.869 30.3097C101.252 29.9432 100.762 29.4041 100.399 28.6925C100.041 27.9766 99.8624 27.0966 99.8624 26.0526C99.8624 25.0085 100.039 24.1136 100.393 23.3679C100.751 22.6222 101.241 22.0511 101.863 21.6548C102.485 21.2543 103.191 21.054 103.979 21.054C104.588 21.054 105.08 21.1562 105.455 21.3608C105.83 21.5611 106.122 21.7955 106.331 22.0639C106.544 22.3324 106.708 22.5689 106.823 22.7734H106.964V21.1818H108.837V31.2173C108.837 32.0611 108.641 32.7536 108.249 33.2947C107.857 33.8359 107.326 34.2365 106.657 34.4964C105.992 34.7564 105.242 34.8864 104.407 34.8864ZM104.388 29.2678C104.938 29.2678 105.402 29.1399 105.781 28.8842C106.165 28.6243 106.455 28.2536 106.651 27.772C106.851 27.2862 106.951 26.7045 106.951 26.027C106.951 25.3665 106.853 24.7848 106.657 24.282C106.461 23.7791 106.173 23.3871 105.794 23.1058C105.415 22.8203 104.946 22.6776 104.388 22.6776C103.813 22.6776 103.333 22.8267 102.95 23.125C102.566 23.419 102.276 23.8196 102.08 24.3267C101.889 24.8338 101.793 25.4006 101.793 26.027C101.793 26.6705 101.891 27.2351 102.087 27.7209C102.283 28.2067 102.573 28.5859 102.956 28.8587C103.344 29.1314 103.821 29.2678 104.388 29.2678ZM115.536 31.1982C114.615 31.1982 113.812 30.9872 113.126 30.5653C112.44 30.1435 111.907 29.5533 111.528 28.7947C111.149 28.0362 110.959 27.1499 110.959 26.1357C110.959 25.1172 111.149 24.2266 111.528 23.4638C111.907 22.701 112.44 22.1087 113.126 21.6868C113.812 21.2649 114.615 21.054 115.536 21.054C116.456 21.054 117.259 21.2649 117.945 21.6868C118.632 22.1087 119.164 22.701 119.544 23.4638C119.923 24.2266 120.112 25.1172 120.112 26.1357C120.112 27.1499 119.923 28.0362 119.544 28.7947C119.164 29.5533 118.632 30.1435 117.945 30.5653C117.259 30.9872 116.456 31.1982 115.536 31.1982ZM115.542 29.5938C116.139 29.5938 116.633 29.4361 117.025 29.1207C117.417 28.8054 117.707 28.3857 117.894 27.8615C118.086 27.3374 118.182 26.7599 118.182 26.1293C118.182 25.5028 118.086 24.9276 117.894 24.4034C117.707 23.875 117.417 23.451 117.025 23.1314C116.633 22.8118 116.139 22.652 115.542 22.652C114.941 22.652 114.443 22.8118 114.046 23.1314C113.654 23.451 113.362 23.875 113.171 24.4034C112.983 24.9276 112.889 25.5028 112.889 26.1293C112.889 26.7599 112.983 27.3374 113.171 27.8615C113.362 28.3857 113.654 28.8054 114.046 29.1207C114.443 29.4361 114.941 29.5938 115.542 29.5938ZM128.465 26.9283V21.1818H130.383V31H128.504V29.2997H128.401C128.175 29.8239 127.813 30.2607 127.315 30.6101C126.82 30.9553 126.205 31.1278 125.467 31.1278C124.837 31.1278 124.278 30.9893 123.793 30.7124C123.311 30.4311 122.932 30.0156 122.655 29.4659C122.382 28.9162 122.246 28.2365 122.246 27.4268V21.1818H124.157V27.1967C124.157 27.8658 124.342 28.3984 124.713 28.7947C125.084 29.1911 125.565 29.3892 126.158 29.3892C126.516 29.3892 126.871 29.2997 127.225 29.1207C127.583 28.9418 127.879 28.6712 128.114 28.3089C128.352 27.9467 128.469 27.4865 128.465 26.9283ZM137.534 21.1818V22.7159H132.171V21.1818H137.534ZM133.609 18.8295H135.52V28.1172C135.52 28.4879 135.576 28.767 135.687 28.9545C135.797 29.1378 135.94 29.2635 136.115 29.3317C136.294 29.3956 136.488 29.4276 136.697 29.4276C136.85 29.4276 136.984 29.4169 137.099 29.3956C137.214 29.3743 137.304 29.3572 137.368 29.3445L137.713 30.9233C137.602 30.9659 137.444 31.0085 137.24 31.0511C137.035 31.098 136.78 31.1236 136.473 31.1278C135.97 31.1364 135.501 31.0469 135.067 30.8594C134.632 30.6719 134.28 30.3821 134.012 29.9901C133.743 29.598 133.609 29.1058 133.609 28.5135V18.8295Z" fill="white"/>
</svg>
